# xmcd
#
# Track frame offsets: 
#        150
#        30691
#        62925
#        85519
#
# Disc length: 1443 seconds
#
# Revision: 0
# Processed by: cddbd v1.5.1PL0 Copyright (c) Steve Scherf et al.
# Submitted via: ExactAudioCopy v0.95a4
#
DISCID=2905a104
DTITLE=Yawning Man - Pot Head
DYEAR=2005
DGENRE=Stoner Rock
TTITLE0=Manolete
TTITLE1=Digital Smoke Signal
TTITLE2=Encounters with an Angry God
TTITLE3=Samba de Primavera
EXTD=
EXTT0=
EXTT1=
EXTT2=
EXTT3=
PLAYORDER=
